<?xml version="1.0" standalone="no"?>
<!DOCTYPE svg PUBLIC "-//W3C//DTD SVG 20010904//EN"
 "http://www.w3.org/TR/2001/REC-SVG-20010904/DTD/svg10.dtd">
<svg version="1.0" xmlns="http://www.w3.org/2000/svg"
 width="623.000000pt" height="134.000000pt" viewBox="0 0 623.000000 134.000000"
 preserveAspectRatio="xMidYMid meet">

<g transform="translate(0.000000,134.000000) scale(0.100000,-0.100000)"
fill="#000000" stroke="none">
<path d="M500 1219 c0 -5 5 -7 10 -4 6 3 10 8 10 11 0 2 -4 4 -10 4 -5 0 -10
-5 -10 -11z"/>
<path d="M203 1053 c-126 -123 -170 -237 -160 -408 6 -103 23 -153 84 -246 93
-143 241 -222 418 -223 202 0 373 107 461 289 96 202 50 432 -120 592 l-71 67
-5 -89 -5 -90 36 -53 c130 -187 61 -444 -145 -539 -53 -24 -73 -28 -151 -28
-77 0 -98 4 -147 27 -206 96 -276 345 -150 532 25 37 30 55 35 144 4 56 5 102
3 102 -2 0 -40 -35 -83 -77z"/>
<path d="M2790 960 c-52 -3 -102 -9 -111 -14 -34 -15 -39 -53 -39 -286 l0
-230 45 0 45 0 0 100 0 100 110 0 c164 0 251 37 284 121 20 50 9 103 -32 144
-55 56 -139 74 -302 65z m173 -71 c69 -19 104 -78 76 -128 -24 -44 -79 -63
-200 -69 l-109 -5 0 107 0 106 98 0 c53 0 114 -5 135 -11z"/>
<path d="M3527 959 c-108 -16 -208 -73 -248 -142 -34 -59 -34 -182 -1 -244 54
-103 209 -163 386 -150 166 13 287 89 317 201 14 51 6 143 -15 184 -40 77
-143 136 -267 152 -84 11 -93 11 -172 -1z m260 -93 c82 -37 106 -72 111 -157
5 -79 -19 -136 -70 -167 -162 -99 -455 -46 -482 88 -20 102 5 178 72 217 69
41 126 53 223 49 66 -2 99 -9 146 -30z"/>
<path d="M5720 962 c-42 -5 -68 -23 -80 -55 -6 -17 -10 -123 -10 -253 l0 -224
45 0 45 0 0 100 0 100 108 0 108 0 55 -96 c29 -53 59 -98 65 -101 7 -2 27 -3
46 -1 l35 3 -58 105 c-33 58 -59 107 -59 110 1 3 19 18 41 33 109 75 77 217
-58 260 -44 15 -221 26 -283 19z m265 -88 c77 -40 70 -126 -13 -161 -22 -9
-82 -18 -144 -21 l-108 -5 0 100 c0 55 3 103 7 107 5 4 55 6 113 4 83 -2 114
-7 145 -24z"/>
<path d="M4060 956 c0 -22 237 -496 256 -513 30 -27 70 -29 103 -6 13 9 41 52
61 97 l37 81 41 -82 c23 -45 52 -89 64 -97 31 -22 74 -20 99 5 12 12 63 108
114 213 51 105 104 215 119 245 14 30 26 56 26 58 0 2 -21 3 -46 1 l-46 -3
-104 -220 c-58 -121 -108 -223 -112 -227 -5 -5 -57 95 -118 222 l-109 230 -43
0 c-52 0 -52 4 19 -140 27 -56 49 -103 49 -107 0 -11 -95 -213 -101 -213 -3 0
-54 104 -114 230 l-109 230 -43 0 c-24 0 -43 -2 -43 -4z"/>
<path d="M5123 945 c-17 -7 -36 -22 -42 -34 -7 -12 -11 -97 -11 -224 l0 -204
26 -24 c25 -23 31 -24 205 -27 l180 -3 -3 33 -3 33 -157 3 -158 3 0 79 0 80
135 0 135 0 0 35 0 35 -135 0 -135 0 0 80 0 80 160 0 160 0 0 35 0 35 -162 0
c-116 -1 -172 -5 -195 -15z"/>
<path d="M1902 880 c0 -14 2 -19 5 -12 2 6 2 18 0 25 -3 6 -5 1 -5 -13z"/>
<path d="M1931 884 c0 -11 3 -14 6 -6 3 7 2 16 -1 19 -3 4 -6 -2 -5 -13z"/>
<path d="M1417 877 c-3 -8 1 -14 8 -14 7 0 11 6 8 14 -3 7 -6 13 -8 13 -2 0
-5 -6 -8 -13z"/>
<path d="M1827 853 c-4 -3 -7 -11 -7 -17 0 -6 5 -5 12 2 6 6 9 14 7 17 -3 3
-9 2 -12 -2z"/>
<path d="M1901 834 c0 -11 3 -14 6 -6 3 7 2 16 -1 19 -3 4 -6 -2 -5 -13z"/>
<path d="M1793 769 c-2 -23 3 -25 10 -4 4 8 3 16 -1 19 -4 3 -9 -4 -9 -15z"/>
<path d="M1766 765 c-9 -26 -7 -32 5 -12 6 10 9 21 6 23 -2 3 -7 -2 -11 -11z"/>
<path d="M1905 621 c0 -137 2 -165 15 -168 11 -3 12 -2 3 4 -9 6 -13 57 -16
168 l-3 160 1 -164z"/>
<path d="M1495 679 c-4 -6 -5 -12 -2 -15 2 -3 7 2 10 11 7 17 1 20 -8 4z"/>
<path d="M1746 663 c-6 -14 -5 -15 5 -6 7 7 10 15 7 18 -3 3 -9 -2 -12 -12z"/>
<path d="M500 660 c0 -5 5 -10 11 -10 5 0 7 5 4 10 -3 6 -8 10 -11 10 -2 0 -4
-4 -4 -10z"/>
<path d="M575 660 c-3 -5 -1 -10 4 -10 6 0 11 5 11 10 0 6 -2 10 -4 10 -3 0
-8 -4 -11 -10z"/>
<path d="M1716 653 c-6 -14 -5 -15 5 -6 7 7 10 15 7 18 -3 3 -9 -2 -12 -12z"/>
<path d="M1527 636 c-4 -10 -3 -15 3 -11 6 3 10 1 10 -6 0 -7 3 -10 6 -6 3 3
2 13 -4 22 -8 16 -9 16 -15 1z"/>
<path d="M1701 623 c-1 -6 -4 -20 -7 -30 -5 -17 -5 -17 6 0 6 10 9 23 6 30 -3
9 -5 9 -5 0z"/>
<path d="M1556 580 c6 -23 34 -71 34 -59 0 3 -9 23 -20 45 -12 22 -18 28 -14
14z"/>
<path d="M2173 510 c0 -25 2 -35 4 -22 2 12 2 32 0 45 -2 12 -4 2 -4 -23z"/>
<path d="M1566 507 c3 -10 9 -15 12 -12 3 3 0 11 -7 18 -10 9 -11 8 -5 -6z"/>
<path d="M2192 500 c0 -14 2 -19 5 -12 2 6 2 18 0 25 -3 6 -5 1 -5 -13z"/>
</g>
</svg>
